<?xml version="1.0" encoding="UTF-8" standalone="no"?>
<!-- Created with Inkscape (http://www.inkscape.org/) -->

<svg
   width="210mm"
   height="297mm"
   viewBox="0 0 210 297"
   version="1.1"
   id="svg1"
   xmlns="http://www.w3.org/2000/svg"
   xmlns:svg="http://www.w3.org/2000/svg">
  <defs
     id="defs1" />
  <g
     id="layer1">
    <path
       id="path1"
       style="fill:#000000;stroke-width:0.264583"
       d="m 100.55355,105.41475 a 61.329273,57.122131 0 0 0 -61.329071,57.1221 61.329273,57.122131 0 0 0 18.92391,41.08121 v -29.15222 l 14.951542,-16.32872 h 5.8198 a 17.883463,18.98761 0 0 1 -2.336809,-9.28884 17.883463,18.98761 0 0 1 17.883663,-18.98747 17.883463,18.98761 0 0 1 17.883665,18.98747 17.883463,18.98761 0 0 1 -17.883665,18.98747 17.883463,18.98761 0 0 1 -4.172872,-0.56896 v 14.46424 l 0.652674,-1.28468 24.488423,5.8291 v -6.63577 H 138.359 v -8.09305 H 122.53102 V 139.6106 h 34.17621 a 61.329273,57.122131 0 0 0 -56.15368,-34.19585 z m 49.59387,66.13188 v 8.09305 h 8.84753 a 61.329273,57.122131 0 0 0 2.05827,-8.09305 z m -59.853707,15.97319 v 31.24719 a 61.329273,57.122131 0 0 0 10.259837,0.89245 61.329273,57.122131 0 0 0 14.88126,-1.82831 v -23.30762 z" />
  </g>
</svg>
